# xmcd
#
# Track frame offsets: 
#        150
#        23563
#        41350
#        59793
#        83053
#        106080
#        128428
#        146238
#        161998
#        184695
#        205568
#        224493
#        250810
#        278398
#        299100
#        321523
#
# Disc length: 4502 seconds
#
# Revision: 1
# Processed by: cddbd v1.5.2PL0 Copyright (c) Steve Scherf et al.
# Submitted via: ExactAudioCopy v0.95b3
#
DISCID=ee119410
DTITLE=Panagopoulos Dhmhtrhs - Asta9hs Isorropia - Ektroph
DYEAR=1988
DGENRE=Acoustic
TTITLE0=sto psa3imo...
TTITLE1=metriothta
TTITLE2=narkwsh
TTITLE3=monologos
TTITLE4=dilhmma
TTITLE5=asta9hs isorropia
TTITLE6=peri9wrio
TTITLE7=aura
TTITLE8=anti9eseis
TTITLE9=iliggos
TTITLE10=o stratos
TTITLE11=erhmos
TTITLE12=ektroph
TTITLE13=antikleidi
TTITLE14=anodos
TTITLE15=leukh magia
EXTD=
EXTT0=
EXTT1=
EXTT2=
EXTT3=
EXTT4=
EXTT5=
EXTT6=
EXTT7=
EXTT8=
EXTT9=
EXTT10=
EXTT11=
EXTT12=
EXTT13=
EXTT14=
EXTT15=
PLAYORDER=
